<svg width="1200" height="1600" viewBox="0 0 1200 1600" fill="none" xmlns="http://www.w3.org/2000/svg">
  <rect width="1200" height="1600" fill="#130E0C"/>
  <rect x="46" y="46" width="1108" height="1508" rx="42" fill="url(#bg)"/>
  <rect x="154" y="216" width="892" height="612" rx="28" fill="#1A1310" stroke="#D8A78B" stroke-opacity="0.28" stroke-width="2"/>
  <rect x="220" y="296" width="324" height="452" rx="18" fill="#241814" stroke="#D8A78B" stroke-opacity="0.46" stroke-width="3"/>
  <rect x="322" y="392" width="120" height="260" rx="60" fill="#D7A083" fill-opacity="0.16" stroke="#E6BAA2" stroke-opacity="0.35" stroke-width="3"/>
  <path d="M604 356H970V692H604V356Z" fill="#241814" stroke="#D8A78B" stroke-opacity="0.38" stroke-width="3"/>
  <path d="M650 640L744 516L812 584L884 460L924 532V640H650Z" fill="#D7A083" fill-opacity="0.18"/>
  <circle cx="866" cy="432" r="26" fill="#EBC2AE" fill-opacity="0.34"/>
  <path d="M150 950H1050" stroke="#D8A78B" stroke-opacity="0.24" stroke-width="2"/>
  <text x="160" y="1088" fill="#F8E7E0" font-family="Georgia, serif" font-size="112" letter-spacing="8">PERA</text>
  <text x="160" y="1204" fill="#F8E7E0" font-family="Georgia, serif" font-size="112" letter-spacing="8">GALLERY</text>
  <text x="160" y="1320" fill="#F8E7E0" font-family="Georgia, serif" font-size="112" letter-spacing="8">NIGHT</text>
  <text x="160" y="1440" fill="#D8A78B" fill-opacity="0.74" font-family="'Courier New', monospace" font-size="24" letter-spacing="10">AUCTION PREVIEW / ORIGINAL WORK SWAP</text>
  <defs>
    <linearGradient id="bg" x1="118" y1="88" x2="1058" y2="1520" gradientUnits="userSpaceOnUse">
      <stop stop-color="#2E1C17"/>
      <stop offset="1" stop-color="#100A08"/>
    </linearGradient>
  </defs>
</svg>
